<mxfile host="app.diagrams.net" agent="Mozilla/5.0 (Windows NT 10.0; Win64; x64) AppleWebKit/537.36 (KHTML, like Gecko) Chrome/138.0.0.0 Safari/537.36" version="28.0.7">
  <diagram name="Page-1" id="hrxoyQjeP7wXpP-OYZ0P">
    <mxGraphModel dx="1426" dy="785" grid="1" gridSize="10" guides="1" tooltips="1" connect="1" arrows="1" fold="1" page="1" pageScale="1" pageWidth="827" pageHeight="1169" math="0" shadow="0">
      <root>
        <mxCell id="0" />
        <mxCell id="1" parent="0" />
        <mxCell id="S9lidXvmGltGdRZUl2o3-11" style="edgeStyle=orthogonalEdgeStyle;rounded=0;orthogonalLoop=1;jettySize=auto;html=1;entryX=0;entryY=0.5;entryDx=0;entryDy=0;" parent="1" source="S9lidXvmGltGdRZUl2o3-3" target="S9lidXvmGltGdRZUl2o3-6" edge="1">
          <mxGeometry relative="1" as="geometry" />
        </mxCell>
        <mxCell id="S9lidXvmGltGdRZUl2o3-3" value="Student&amp;nbsp;&lt;div&gt;Registration&lt;/div&gt;" style="rounded=1;whiteSpace=wrap;html=1;" parent="1" vertex="1">
          <mxGeometry x="259" y="170" width="120" height="60" as="geometry" />
        </mxCell>
        <mxCell id="S9lidXvmGltGdRZUl2o3-4" value="" style="group" parent="1" vertex="1" connectable="0">
          <mxGeometry x="260" y="30" width="114" height="70" as="geometry" />
        </mxCell>
        <mxCell id="S9lidXvmGltGdRZUl2o3-1" value="" style="ellipse;whiteSpace=wrap;html=1;" parent="S9lidXvmGltGdRZUl2o3-4" vertex="1">
          <mxGeometry width="114" height="70" as="geometry" />
        </mxCell>
        <mxCell id="S9lidXvmGltGdRZUl2o3-2" value="Student" style="text;strokeColor=none;align=center;fillColor=none;html=1;verticalAlign=middle;whiteSpace=wrap;rounded=0;" parent="S9lidXvmGltGdRZUl2o3-4" vertex="1">
          <mxGeometry x="24" y="17.5" width="66" height="35" as="geometry" />
        </mxCell>
        <mxCell id="S9lidXvmGltGdRZUl2o3-15" style="edgeStyle=orthogonalEdgeStyle;rounded=0;orthogonalLoop=1;jettySize=auto;html=1;entryX=1;entryY=0.5;entryDx=0;entryDy=0;exitX=0.464;exitY=1.017;exitDx=0;exitDy=0;exitPerimeter=0;" parent="1" source="S9lidXvmGltGdRZUl2o3-6" target="S9lidXvmGltGdRZUl2o3-12" edge="1">
          <mxGeometry relative="1" as="geometry" />
        </mxCell>
        <mxCell id="S9lidXvmGltGdRZUl2o3-6" value="Profile setup" style="rounded=1;whiteSpace=wrap;html=1;" parent="1" vertex="1">
          <mxGeometry x="449" y="170" width="120" height="60" as="geometry" />
        </mxCell>
        <mxCell id="S9lidXvmGltGdRZUl2o3-10" style="edgeStyle=orthogonalEdgeStyle;rounded=0;orthogonalLoop=1;jettySize=auto;html=1;entryX=0.488;entryY=0.047;entryDx=0;entryDy=0;entryPerimeter=0;" parent="1" source="S9lidXvmGltGdRZUl2o3-1" target="S9lidXvmGltGdRZUl2o3-3" edge="1">
          <mxGeometry relative="1" as="geometry" />
        </mxCell>
        <mxCell id="S9lidXvmGltGdRZUl2o3-17" style="edgeStyle=orthogonalEdgeStyle;rounded=0;orthogonalLoop=1;jettySize=auto;html=1;entryX=0.5;entryY=0;entryDx=0;entryDy=0;" parent="1" source="S9lidXvmGltGdRZUl2o3-12" target="S9lidXvmGltGdRZUl2o3-16" edge="1">
          <mxGeometry relative="1" as="geometry" />
        </mxCell>
        <mxCell id="S9lidXvmGltGdRZUl2o3-12" value="Browse Projects" style="rounded=1;whiteSpace=wrap;html=1;" parent="1" vertex="1">
          <mxGeometry x="260" y="280" width="120" height="60" as="geometry" />
        </mxCell>
        <mxCell id="S9lidXvmGltGdRZUl2o3-14" style="edgeStyle=orthogonalEdgeStyle;rounded=0;orthogonalLoop=1;jettySize=auto;html=1;entryX=0.494;entryY=-0.044;entryDx=0;entryDy=0;entryPerimeter=0;" parent="1" source="S9lidXvmGltGdRZUl2o3-3" target="S9lidXvmGltGdRZUl2o3-12" edge="1">
          <mxGeometry relative="1" as="geometry" />
        </mxCell>
        <mxCell id="S9lidXvmGltGdRZUl2o3-19" style="edgeStyle=orthogonalEdgeStyle;rounded=0;orthogonalLoop=1;jettySize=auto;html=1;entryX=0.5;entryY=0;entryDx=0;entryDy=0;" parent="1" source="S9lidXvmGltGdRZUl2o3-16" target="S9lidXvmGltGdRZUl2o3-18" edge="1">
          <mxGeometry relative="1" as="geometry" />
        </mxCell>
        <mxCell id="S9lidXvmGltGdRZUl2o3-16" value="Apply Projects" style="rounded=1;whiteSpace=wrap;html=1;" parent="1" vertex="1">
          <mxGeometry x="260" y="380" width="120" height="60" as="geometry" />
        </mxCell>
        <mxCell id="S9lidXvmGltGdRZUl2o3-21" style="edgeStyle=orthogonalEdgeStyle;rounded=0;orthogonalLoop=1;jettySize=auto;html=1;entryX=0;entryY=0.5;entryDx=0;entryDy=0;" parent="1" source="S9lidXvmGltGdRZUl2o3-18" target="S9lidXvmGltGdRZUl2o3-20" edge="1">
          <mxGeometry relative="1" as="geometry" />
        </mxCell>
        <mxCell id="S9lidXvmGltGdRZUl2o3-18" value="Get shortlisted by companies" style="rounded=1;whiteSpace=wrap;html=1;" parent="1" vertex="1">
          <mxGeometry x="260" y="480" width="120" height="60" as="geometry" />
        </mxCell>
        <mxCell id="S9lidXvmGltGdRZUl2o3-23" style="edgeStyle=orthogonalEdgeStyle;rounded=0;orthogonalLoop=1;jettySize=auto;html=1;entryX=0.5;entryY=0;entryDx=0;entryDy=0;" parent="1" source="S9lidXvmGltGdRZUl2o3-20" target="S9lidXvmGltGdRZUl2o3-22" edge="1">
          <mxGeometry relative="1" as="geometry" />
        </mxCell>
        <mxCell id="S9lidXvmGltGdRZUl2o3-20" value="Team Formation" style="rounded=1;whiteSpace=wrap;html=1;" parent="1" vertex="1">
          <mxGeometry x="440" y="480" width="120" height="60" as="geometry" />
        </mxCell>
        <mxCell id="S9lidXvmGltGdRZUl2o3-22" value="Start Collaboration" style="rounded=1;whiteSpace=wrap;html=1;" parent="1" vertex="1">
          <mxGeometry x="440" y="585" width="120" height="60" as="geometry" />
        </mxCell>
      </root>
    </mxGraphModel>
  </diagram>
</mxfile>
